<?xml version="1.0" encoding="UTF-8" standalone="no"?>
<!-- Created with Inkscape (http://www.inkscape.org/) -->

<svg
   xmlns:dc="http://purl.org/dc/elements/1.1/"
   xmlns:cc="http://creativecommons.org/ns#"
   xmlns:rdf="http://www.w3.org/1999/02/22-rdf-syntax-ns#"
   xmlns:svg="http://www.w3.org/2000/svg"
   xmlns="http://www.w3.org/2000/svg"
   xmlns:sodipodi="http://sodipodi.sourceforge.net/DTD/sodipodi-0.dtd"
   xmlns:inkscape="http://www.inkscape.org/namespaces/inkscape"
   width="91.72245mm"
   height="91.723007mm"
   viewBox="0 0 325.00081 325.00278"
   id="svg2"
   version="1.1"
   inkscape:version="0.91 r13725"
   sodipodi:docname="MCKout.svg">
  <defs
     id="defs4">
    <filter
       inkscape:label="Black Hole"
       inkscape:menu="Morphology"
       inkscape:menu-tooltip="Creates a black light inside and outside"
       height="1.5"
       width="1.5"
       y="-0.25"
       x="-0.25"
       style="color-interpolation-filters:sRGB"
       id="filter3931">
      <feGaussianBlur
         stdDeviation="5"
         in="SourceAlpha"
         result="result1"
         id="feGaussianBlur3933" />
      <feComposite
         operator="arithmetic"
         k2="3.2"
         k1="-1"
         k4="-2"
         result="result3"
         in2="result1"
         id="feComposite3935"
         k3="0" />
      <feColorMatrix
         values="1 0 0 0 0 0 1 0 0 0 0 0 1 0 0 0 0 0 10 0 "
         result="result2"
         id="feColorMatrix3937" />
      <feComposite
         result="fbSourceGraphic"
         in="SourceGraphic"
         operator="out"
         in2="result2"
         id="feComposite3939" />
      <feBlend
         mode="multiply"
         in="result1"
         in2="fbSourceGraphic"
         result="result91"
         id="feBlend3941" />
      <feBlend
         mode="screen"
         in="fbSourceGraphic"
         in2="result91"
         id="feBlend3943" />
    </filter>
    <filter
       style="color-interpolation-filters:sRGB;"
       inkscape:label="Greyscale"
       id="filter4276">
      <feColorMatrix
         values="10 8.24 10 10 0 10 8.24 10 10 0 10 8.24 10 10 0 0 0 0 1 0 "
         id="feColorMatrix4278" />
    </filter>
    <filter
       style="color-interpolation-filters:sRGB;"
       inkscape:label="Greyscale"
       id="filter4280">
      <feColorMatrix
         values="10 8.24 10 10 0 10 8.24 10 10 0 10 8.24 10 10 0 0 0 0 1 0 "
         id="feColorMatrix4282" />
    </filter>
    <filter
       style="color-interpolation-filters:sRGB;"
       inkscape:label="Greyscale"
       id="filter4284">
      <feColorMatrix
         values="10 8.24 10 10 0 10 8.24 10 10 0 10 8.24 10 10 0 0 0 0 1 0 "
         id="feColorMatrix4286" />
    </filter>
  </defs>
  <sodipodi:namedview
     id="base"
     pagecolor="#ffffff"
     bordercolor="#666666"
     borderopacity="1.0"
     inkscape:pageopacity="0.0"
     inkscape:pageshadow="2"
     inkscape:zoom="0.57679761"
     inkscape:cx="-235.18982"
     inkscape:cy="22.339851"
     inkscape:document-units="px"
     inkscape:current-layer="g3495"
     showgrid="false"
     inkscape:window-width="1311"
     inkscape:window-height="744"
     inkscape:window-x="55"
     inkscape:window-y="24"
     inkscape:window-maximized="1"
     fit-margin-top="0"
     fit-margin-left="0"
     fit-margin-right="0"
     fit-margin-bottom="0" />
  <metadata
     id="metadata7">
    <rdf:RDF>
      <cc:Work
         rdf:about="">
        <dc:format>image/svg+xml</dc:format>
        <dc:type
           rdf:resource="http://purl.org/dc/dcmitype/StillImage" />
        <dc:title />
      </cc:Work>
    </rdf:RDF>
  </metadata>
  <g
     inkscape:label="Layer 1"
     inkscape:groupmode="layer"
     id="layer1"
     transform="translate(-187.01939,-305.96743)">
    <g
       id="g3495"
       transform="translate(535.71651,-270.45882)"
       style="filter:url(#filter3931)">
      <g
         id="g3945"
         style="filter:url(#filter4284)">
        <path
           style="opacity:1;fill:#4d4d4d;fill-opacity:1;stroke:#333333;stroke-width:0.22239159;stroke-miterlimit:4;stroke-dasharray:none;stroke-opacity:0"
           id="path3499"
           sodipodi:type="arc"
           sodipodi:cx="-186.1967"
           sodipodi:cy="653.1394"
           sodipodi:rx="67.312981"
           sodipodi:ry="76.599144"
           sodipodi:start="2.0943951"
           sodipodi:end="1.0471976"
           d="m -219.85319,719.47621 a 67.312981,76.599144 0 0 1 -31.36286,-86.16212 67.312981,76.599144 0 0 1 65.01935,-56.77383 67.312981,76.599144 0 0 1 65.01935,56.77383 67.312981,76.599144 0 0 1 -31.36286,86.16212 L -186.1967,653.1394 Z" />
        <rect
           style="opacity:1;fill:#333333;fill-opacity:1;stroke:#333333;stroke-width:0.24831599;stroke-miterlimit:4;stroke-dasharray:none;stroke-opacity:0"
           id="rect3344-7"
           width="64.341393"
           height="270.61917"
           x="-593.99695"
           y="337.05191"
           transform="matrix(0.84601695,-0.533156,0.4879034,0.87289763,0,0)" />
        <rect
           style="opacity:1;fill:#333333;fill-opacity:1;stroke:#333333;stroke-width:0.23408821;stroke-miterlimit:4;stroke-dasharray:none;stroke-opacity:0"
           id="rect3344"
           width="63.31271"
           height="244.4037"
           x="-348.57941"
           y="576.5462" />
        <rect
           style="opacity:1;fill:#333333;fill-opacity:1;stroke:#333333;stroke-width:0.24831599;stroke-miterlimit:4;stroke-dasharray:none;stroke-opacity:0"
           id="rect3344-7-3"
           width="64.341393"
           height="270.61917"
           x="-268.73416"
           y="535.71869"
           transform="matrix(-0.84601695,-0.533156,-0.4879034,0.87289763,0,0)" />
        <rect
           style="opacity:1;fill:#1a1a1a;fill-opacity:1;stroke:#333333;stroke-width:0.27794716;stroke-miterlimit:4;stroke-dasharray:none;stroke-opacity:0"
           id="rect3344-6"
           width="67.181732"
           height="324.72287"
           x="834.10834"
           y="23.835274"
           transform="matrix(0,1,-1,0,0,0)" />
        <rect
           style="opacity:1;fill:#333333;fill-opacity:1;stroke:#333333;stroke-width:0.23408821;stroke-miterlimit:4;stroke-dasharray:none;stroke-opacity:0"
           id="rect3344-62"
           width="63.31271"
           height="244.4037"
           x="-87.126701"
           y="576.5462" />
      </g>
      <path
         style="opacity:1;fill:#ffff00;fill-opacity:1;stroke:#008080;stroke-width:2.60056567;stroke-linecap:round;stroke-miterlimit:4;stroke-dasharray:none;stroke-dashoffset:0;stroke-opacity:1;filter:url(#filter4280)"
         d="m 9.6258212,312.75945 c -1.371953,-3.57524 -1.3749724,-39.49491 -0.00362,-43.06859 0.9308308,-2.4257 7.8074988,-2.74236 59.5542988,-2.74236 38.07315,0 60.41217,-0.6659 63.97225,-1.90696 5.85553,-2.04126 8.18983,-7.0772 6.75634,-14.576 -1.05134,-5.49975 -61.612539,-114.33004 -66.671738,-119.81113 -5.053412,-5.47482 -13.431071,-5.5945 -16.492032,-0.23561 -1.613239,2.82434 -2.467362,17.77594 -3.094991,54.17845 l -0.866856,50.2776 -19.689523,0.49195 C 20.057135,235.69242 12.583858,235.18105 10.985142,233.85424 7.6752084,231.10722 7.3494513,14.006963 10.65031,10.706103 12.84307,8.5133434 52.566857,7.6549563 57.859577,9.6859633 c 1.51972,0.5831717 8.674616,11.5331407 15.899769,24.3332637 7.225151,12.800123 15.107403,24.564244 17.516113,26.142491 6.619162,4.337043 12.212571,0.331417 19.583311,-14.024245 8.66878,-16.883803 15.62666,-24.316524 28.863,-30.832751 14.20889,-6.9950157 29.51313,-7.6604729 42.63952,-1.854047 12.21747,5.40437 24.78938,18.126574 31.05711,31.428386 6.64869,14.110346 9.51223,17.491612 14.81333,17.491612 6.15146,0 10.66887,-5.538047 23.69969,-29.054285 6.47708,-11.688923 13.22196,-22.026171 14.98862,-22.971662 3.81153,-2.039867 43.21586,-2.2795308 46.36226,-0.281983 1.72159,1.092977 2.08616,24.874527 1.73371,113.098057 l -0.44627,111.71405 -19.68952,0.49195 c -13.03283,0.32562 -20.50609,-0.18575 -22.10481,-1.51256 -1.95675,-1.62397 -2.41529,-10.99984 -2.41529,-49.38769 0,-32.51926 -0.6371,-48.78145 -2.03093,-51.8406 -2.52898,-5.55049 -8.85524,-7.32568 -14.02803,-3.93635 -3.64006,2.38508 -67.0571,113.63379 -69.67235,122.22208 -1.61983,5.31937 0.25669,10.40576 4.79776,13.00466 2.7407,1.56852 20.50732,2.40421 64.46331,3.03216 l 60.67986,0.86685 0,23.40509 0,23.40509 -151.94398,0.44286 C 25.193609,315.46896 10.580932,315.24844 9.6258212,312.75945 Z M 167.73262,177.83751 c 5.77311,-2.9854 26.39605,-38.72817 27.55961,-47.7651 0.64004,-4.97091 -1.26242,-10.32419 -9.88896,-27.8264 -12.17278,-24.697083 -15.87316,-29.473075 -22.8354,-29.473075 -7.03548,0 -10.48848,4.304489 -22.20923,27.685915 -12.98688,25.9072 -13.11488,28.55985 -2.33649,48.42148 14.05562,25.90066 17.02562,29.69159 24.5006,31.27276 0.28574,0.0604 2.63018,-0.98157 5.20987,-2.31558 z"
         id="path4164"
         inkscape:connector-curvature="0"
         transform="translate(-348.69712,576.42623)" />
      <path
         style="opacity:1;fill:#ffff00;fill-opacity:1;stroke:#008080;stroke-width:2.60056567;stroke-linecap:round;stroke-miterlimit:4;stroke-dasharray:none;stroke-dashoffset:0;stroke-opacity:1;filter:url(#filter4276)"
         d="m 9.6258212,312.75945 c -1.371953,-3.57524 -1.3749724,-39.49491 -0.00362,-43.06859 0.9308308,-2.4257 7.8074988,-2.74236 59.5542988,-2.74236 38.07315,0 60.41217,-0.6659 63.97225,-1.90696 5.85553,-2.04126 8.18983,-7.0772 6.75634,-14.576 -1.05134,-5.49975 -61.612539,-114.33004 -66.671738,-119.81113 -4.716786,-5.11012 -11.050931,-5.31121 -15.417472,-0.48945 -3.043232,3.36049 -3.370799,7.61685 -4.169552,54.17844 l -0.866856,50.53145 -19.689523,0.49195 C 20.057135,235.69242 12.583858,235.18105 10.985142,233.85424 7.6752084,231.10722 7.3494513,14.006963 10.65031,10.706103 12.84307,8.5133434 52.566857,7.6549563 57.859577,9.6859633 c 1.51972,0.5831717 8.674616,11.5331407 15.899769,24.3332637 7.225151,12.800123 15.107403,24.564244 17.516113,26.142491 6.619162,4.337043 12.212571,0.331417 19.583311,-14.024245 8.66878,-16.883803 15.62666,-24.316524 28.863,-30.832751 14.20889,-6.9950157 29.51313,-7.6604729 42.63952,-1.854047 12.21747,5.40437 24.78938,18.126574 31.05711,31.428386 6.64869,14.110346 9.51223,17.491612 14.81333,17.491612 6.15146,0 10.66887,-5.538047 23.69969,-29.054285 6.47708,-11.688923 13.22196,-22.026171 14.98862,-22.971662 3.81153,-2.039867 43.21586,-2.2795308 46.36226,-0.281983 1.72159,1.092977 2.08616,24.874527 1.73371,113.098057 l -0.44627,111.71405 -19.68952,0.49195 c -13.03283,0.32562 -20.50609,-0.18575 -22.10481,-1.51256 -1.95675,-1.62397 -2.41529,-10.99984 -2.41529,-49.38769 0,-32.51926 -0.6371,-48.78145 -2.03093,-51.8406 -2.52898,-5.55049 -8.85524,-7.32568 -14.02803,-3.93635 -3.64006,2.38508 -67.0571,113.63379 -69.67235,122.22208 -1.61983,5.31937 0.25669,10.40576 4.79776,13.00466 2.7407,1.56852 20.50732,2.40421 64.46331,3.03216 l 60.67986,0.86685 0,23.40509 0,23.40509 -151.94398,0.44286 C 25.193609,315.46896 10.580932,315.24844 9.6258212,312.75945 Z M 167.73262,177.83751 c 5.77311,-2.9854 26.39605,-38.72817 27.55961,-47.7651 0.64004,-4.97091 -1.26242,-10.32419 -9.88896,-27.8264 -12.17278,-24.697083 -15.87316,-29.473075 -22.8354,-29.473075 -7.03548,0 -10.48848,4.304489 -22.20923,27.685915 -12.98688,25.9072 -13.11488,28.55985 -2.33649,48.42148 14.05562,25.90066 17.02562,29.69159 24.5006,31.27276 0.28574,0.0604 2.63018,-0.98157 5.20987,-2.31558 z"
         id="path4166"
         inkscape:connector-curvature="0"
         transform="translate(-348.69712,576.42623)" />
    </g>
  </g>
</svg>
